# AST/ASF file generated using VICON BodyLanguage
# -----------------------------------------------
:version 1.10
:name VICON
:units
  mass 1.0
  length 0.45
  angle deg
:documentation
   .ast/.asf automatically generated from VICON data using
   VICON BodyBuilder and BodyLanguage model FoxedUp or BRILLIANT.MOD
:root
   order TX TY TZ RX RY RZ
   axis XYZ
   position 0 0 0  
   orientation 0 0 0 
:bonedata
  begin
     id 1 
     name lhipjoint
     direction 0.645897 -0.709066 0.282916 
     length 2.50918 
     axis 0 0 0  XYZ
  end
  begin
     id 2 
     name lfemur
     direction 0.34202 -0.939693 0  
     length 6.85725  
     axis 0 0 20  XYZ
    dof rx ry rz
    limits (-160.0 20.0)
           (-70.0 70.0)
           (-60.0 70.0)
  end
  begin
     id 3 
     name ltibia
     direction 0.34202 -0.939693 0   
     length 8.01778   
     axis 0 0 20   XYZ
    dof rx
    limits (-10.0 170.0)
  end
  begin
     id 4 
     name lfoot
     direction 0.0796011 -0.218702 0.972539   
     length 2.13962   
     axis -90 7.62852e-016 20   XYZ
    dof rx rz
    limits (-45.0 90.0)
           (-70.0 20.0)
  end
  begin
     id 5 
     name ltoes
     direction 1.53548e-011 -4.21881e-011 1   
     length 1.07476   
     axis -90 7.62852e-016 20   XYZ
    dof rx
    limits (-90.0 20.0)
  end
  begin
     id 6 
     name rhipjoint
     direction -0.63101 -0.720537 0.287493   
     length 2.46923  
     axis 0 0 0  XYZ 
  end
  begin
     id 7 
     name rfemur
     direction -0.34202 -0.939693 0   
     length 6.81957   
     axis 0 0 -20   XYZ
    dof rx ry rz
    limits (-160.0 20.0)
           (-70.0 70.0)
           (-70.0 60.0)
  end
  begin
     id 8 
     name rtibia
     direction -0.34202 -0.939693 0   
     length 8.15152   
     axis 0 0 -20   XYZ
    dof rx
    limits (-10.0 170.0)
 end
 begin
     id 9 
     name rfoot
     direction -0.105819 -0.290734 0.950934   
     length 2.14588  
     axis -90 -7.62852e-016 -20   XYZ
    dof rx rz
    limits (-45.0 90.0)
           (-20.0 70.0)
  end
  begin
     id 10 
     name rtoes
     direction -1.53512e-011 -4.22005e-011 1   
     length 1.0703   
     axis -90 -7.62852e-016 -20   XYZ
    dof rx
    limits (-90.0 20.0)
  end
  begin
     id 11 
     name lowerback
     direction 0.0114933 0.999236 0.0373542   
     length 1.91711   
     axis 0 0 0   XYZ
    dof rx ry rz
    limits (-20.0 45.0)
           (-30.0 30.0)
           (-30.0 30.0)
  end
  begin
     id 12 
     name upperback
     direction 0.00911529 0.998099 0.0609554   
     length 1.90888   
     axis 0 0 0   XYZ
    dof rx ry rz
    limits (-20.0 45.0)
           (-30.0 30.0)
           (-30.0 30.0)
  end
  begin
     id 13 
     name thorax
     direction 0.00357322 0.99911 0.0420379   
     length 1.90942   
     axis 0 0 0   XYZ
    dof rx ry rz
    limits (-20.0 45.0)
           (-30.0 30.0)
           (-30.0 30.0)
  end
  begin
     id 14 
     name lowerneck
     direction -0.0589311 0.997882 0.0275448   
     length 1.83956   
     axis 0 0 0   XYZ
    dof rx ry rz
    limits (-20.0 45.0)
           (-30.0 30.0)
           (-30.0 30.0)
  end
  begin
     id 15 
     name upperneck
     direction 0.0362633 0.960055 -0.277453   
     length 1.82031   
     axis 0 0 0   XYZ
    dof rx ry rz
    limits (-20.0 45.0)
           (-30.0 30.0)
           (-30.0 30.0)
  end
  begin
     id 16
     name head
     direction 0.0166719 0.995328 -0.0951042  
     length 1.86084  
     axis 0 0 0   XYZ
    dof rx ry rz
    limits (-20.0 45.0)
           (-30.0 30.0)
           (-30.0 30.0)
  end
  begin
     id 17 
     name lclavicle
     direction 0.90319 0.426238 0.0506919  
     length 3.17828  
     axis 0 0 0   XYZ
    dof ry rz
    limits (-20.0 10.0)
           (0.0 20.0)
  end
  begin
     id 18 
     name lhumerus
     direction 1 -4.48953e-011 6.78797e-028   
     length 5.43592   
     axis 180 -30 -90   XYZ
    dof rx ry rz
    limits (-60.0 90.0)
           (-90.0 90.0)
           (-90.0 90.0)
  end
  begin
     id 19
     name lradius
     direction 1 -4.48969e-011 7.02702e-027   
     length 3.2546   
     axis 180 -30 -90   XYZ
    dof rx
    limits (-10.0 170.0)
  end
  begin
     id 20
     name lwrist
     direction 1 -4.48975e-011 1.29807e-026   
     length 1.6273   
     axis -8.50346e-015 90 90   XYZ
    dof ry
    limits (-180.0 0.0)
 end
  begin
     id 21 
     name lhand
     direction 1 -4.48917e-011 2.59615e-026   
     length 0.498244   
     axis -1.65656e-014 90 90   XYZ
    dof rx rz
    limits (-90.0 90.0)
           (-45.0 45.0)
  end
  begin
     id 22 
     name lfingers
     direction 1 -4.48885e-011 5.1923e-026   
     length 0.401697   
     axis -3.31313e-014 90 90   XYZ
    dof rx
    limits (0.0 90.0)
  end
  begin
     id 23
     name lthumb
     direction 0.707107 -6.34946e-011 0.707107   
     length 0.576759   
     axis -90 45 2.85299e-015   XYZ
    dof rx rz
    limits (-45.0 45.0)
           (-45.0 45.0)
  end
  begin
     id 24 
     name rclavicle
     direction -0.908603 0.391432 0.145676   
     length 3.15477  
     axis 0 0 0   XYZ 
    dof ry rz
    limits (-10.0 20.0)
           (-20.0 0.0)
  end
  begin
     id 25 
     name rhumerus
     direction -1 -4.4898e-011 1.02852e-027  
     length 5.3383   
     axis 180 30 90   XYZ
    dof rx ry rz
    limits (-90.0 60.0)
           (-90.0 90.0)
           (-90.0 90.0)
  end
  begin
     id 26 
     name rradius
     direction -1 -4.48968e-011 7.05567e-027   
     length 3.23148   
     axis 180 30 90   XYZ
    dof rx
    limits (-10.0 170.0)
  end
  begin
     id 27 
     name rwrist
     direction -1 -4.48927e-011 1.29807e-026   
     length 1.61574   
     axis -8.50346e-015 -90 -90   XYZ
    dof ry
    limits (-180.0 0.0)
  end
  begin
     id 28
     name rhand
     direction -1 -4.48905e-011 2.59615e-026   
     length 0.463641   
     axis -1.65656e-014 -90 -90   XYZ
    dof rx rz
    limits (-90.0 90.0)
           (-45.0 45.0)
  end
  begin
     id 29
     name rfingers
     direction -1 -4.49167e-011 5.1923e-026   
     length 0.373799   
     axis -3.31313e-014 -90 -90   XYZ
    dof rx
    limits (0.0 90.0)
  end
  begin
     id 30
     name rthumb
     direction -0.707107 -6.34954e-011 0.707107   
     length 0.536703   
     axis -90 -45 -2.85299e-015   XYZ
    dof rx rz
    limits (-45.0 45.0)
           (-45.0 45.0)
  end
:hierarchy
  begin
    root lhipjoint rhipjoint lowerback
    lhipjoint lfemur
    lfemur ltibia
    ltibia lfoot
    lfoot ltoes
    rhipjoint rfemur
    rfemur rtibia
    rtibia rfoot
    rfoot rtoes
    lowerback upperback
    upperback thorax
    thorax lowerneck lclavicle rclavicle
    lowerneck upperneck
    upperneck head
    lclavicle lhumerus
    lhumerus lradius
    lradius lwrist
    lwrist lhand lthumb
    lhand lfingers
    rclavicle rhumerus
    rhumerus rradius
    rradius rwrist
    rwrist rhand rthumb
    rhand rfingers
  end

#!OML:ASF F:\VICON\USERDATA\INSTALL\rory3\rory3.ASF
:FULLY-SPECIFIED
:DEGREES
138
root 3.91468 17.441 3.4115 19.9608 -6.93064 -3.82742
lowerback -9.15786 1.28776 6.77568
upperback -11.0511 1.42347 1.04622
thorax -6.42646 0.249475 -2.62637
lowerneck -4.62786 13.5811 9.93928
upperneck 20.3901 16.3493 6.31664
head 7.38366 9.09568 1.80783
rclavicle -5.96354e-016 -1.2921e-014
rhumerus -7.9717 -20.971 16.5086
rradius 114.799
rwrist -53.7909
rhand -4.9659 -45.5274
rfingers 7.12502
rthumb 20.8262 -74.4296
lclavicle -5.96354e-016 -1.2921e-014
lhumerus 28.8685 23.865 -16.405
lradius 29.2402
lwrist 24.4175
lhand -23.7872 -24.4888
lfingers 7.12502
lthumb 2.6829 5.47404
rfemur -2.44084 4.42125 3.64912
rtibia 13.2601
rfoot 0.886343 -30.068
rtoes 6.91709
lfemur -29.8923 -1.93764 -22.4816
ltibia 28.9621
lfoot -16.8819 6.13994
ltoes 10.3988
139
root 3.91473 17.4429 3.40433 19.9871 -6.8095 -3.9114
lowerback -9.09317 1.25585 6.84883
upperback -11.0575 1.38527 1.07344
thorax -6.47429 0.22468 -2.64083
lowerneck -3.79187 13.3302 10.2816
upperneck 19.9045 16.1917 5.72322
head 7.15946 8.97912 1.47844
rclavicle 1.76421e-015 -9.14409e-015
rhumerus -7.83868 -20.989 16.2359
rradius 114.71
rwrist -53.6851
rhand -4.1268 -45.5696
rfingers 7.12502
rthumb 21.6322 -74.3813
lclavicle 1.76421e-015 -9.14409e-015
lhumerus 29.0384 24.2934 -15.9089
lradius 29.0516
lwrist 23.6707
lhand -25.0272 -24.1907
lfingers 7.12502
lthumb 1.48533 5.78393
rfemur -2.55482 4.32886 3.81377
rtibia 13.4048
rfoot 2.19533 -30.0724
rtoes 4.32601
lfemur -30.0088 -1.92455 -22.3713
ltibia 29.0429
lfoot -16.8658 6.0351
ltoes 10.424
140
root 3.91217 17.4434 3.3932 19.9315 -6.75726 -3.88329
lowerback -8.927 1.19171 6.7659
upperback -11.0188 1.31698 1.0853
thorax -6.53057 0.196206 -2.58729
lowerneck -4.44347 13.2731 9.79558
upperneck 20.5761 15.9871 6.16232
head 7.40675 8.90473 1.74012
rclavicle 1.22501e-014 -5.96354e-015
rhumerus -7.56182 -21.0142 15.8082
rradius 114.541
rwrist -53.5354
rhand -3.97809 -45.5198
rfingers 7.12502
rthumb 21.775 -74.3149
lclavicle 1.22501e-014 -5.96354e-015
lhumerus 28.9538 24.4603 -15.7986
lradius 28.9299
lwrist 23.1751
lhand -25.2289 -23.8477
lfingers 7.12502
lthumb 1.2905 6.1281
rfemur -2.59191 4.30558 3.84399
rtibia 13.5877
rfoot 0.734727 -30.1646
rtoes 7.52303
lfemur -30.0648 -1.91072 -22.375
ltibia 29.1263
lfoot -16.8526 5.91532
ltoes 10.9841
141
root 3.90888 17.4399 3.38358 19.8377 -6.77378 -3.81973
lowerback -8.81229 1.15416 6.62841
upperback -10.9164 1.27786 1.07749
thorax -6.48364 0.190133 -2.52211
lowerneck -4.63007 13.1681 9.56132
upperneck 20.7434 15.8284 6.23492
head 7.46335 8.8235 1.80008
rclavicle -1.12313e-014 -6.95746e-015
rhumerus -7.39746 -20.9188 15.472
rradius 114.422
rwrist -53.4418
rhand -4.82056 -45.5628
rfingers 7.12502
rthumb 20.9658 -74.4497
lclavicle -1.12313e-014 -6.95746e-015
lhumerus 28.9119 24.6591 -15.6394
lradius 28.8113
lwrist 22.7729
lhand -24.542 -24.067
lfingers 7.12502
lthumb 1.95387 5.90375
rfemur -2.58666 4.30506 3.80196
rtibia 13.7715
rfoot -1.16425 -30.0577
rtoes 11.3317
lfemur -30.0614 -1.87069 -22.4353
ltibia 29.225
lfoot -16.858 5.86973
ltoes 11.3247
142
root 3.9064 17.4387 3.37501 19.849 -6.71007 -3.94976
lowerback -8.85187 1.12952 6.70673
upperback -10.7688 1.23313 1.10853
thorax -6.303 0.172439 -2.5338
lowerneck -4.79692 13.1048 9.58504
upperneck 20.8663 15.7408 6.08974
head 7.54611 8.77357 1.76455
rclavicle -9.21864e-015 5.56597e-015
rhumerus -7.30995 -20.8671 15.1297
rradius 114.314
rwrist -53.2547
rhand -5.28628 -45.5358
rfingers 7.12502
rthumb 20.5183 -74.4716
lclavicle -9.21864e-015 5.56597e-015
lhumerus 28.7832 24.9197 -15.5922
lradius 28.7797
lwrist 22.7771
lhand -24.3471 -24.5957
lfingers 7.12502
lthumb 2.14214 5.37325
rfemur -2.69829 4.34853 3.98972
rtibia 13.956
rfoot 0.571311 -29.932
rtoes 6.98227
lfemur -30.1571 -1.88651 -22.2554
ltibia 29.3364
lfoot -16.87 5.84909
ltoes 11.1727
143
root 3.90454 17.4387 3.36763 19.9036 -6.67007 -4.10746
lowerback -8.87987 1.10273 6.81001
upperback -10.6282 1.18561 1.14779
thorax -6.13765 0.151368 -2.55116
lowerneck -5.23815 13.0695 9.51557
upperneck 21.2518 15.6391 6.07557
head 7.74487 8.72851 1.81512
rclavicle 1.62755e-014 -1.53064e-014
rhumerus -7.12202 -20.9704 14.6889
rradius 114.115
rwrist -52.9934
rhand -4.81407 -45.3092
rfingers 7.12502
rthumb 20.972 -74.1954
lclavicle 1.62755e-014 -1.53064e-014
lhumerus 28.263 24.6099 -16.1845
lradius 28.9361
lwrist 23.5262
lhand -24.1421 -24.7096
lfingers 7.12502
lthumb 2.34015 5.25729
rfemur -2.88641 4.4037 4.18741
rtibia 14.1645
rfoot 2.84821 -29.6781
rtoes 1.41763
lfemur -30.3052 -1.87298 -22.0556
ltibia 29.4495
lfoot -16.9126 5.76458
ltoes 11.4299
144
root 3.90399 17.4361 3.36513 19.8904 -6.695 -4.10696
lowerback -8.8751 1.09964 6.76955
upperback -10.5293 1.17912 1.14488
thorax -6.03132 0.156435 -2.53205
lowerneck -5.59126 12.9695 9.27599
upperneck 21.6659 15.4621 6.16418
head 7.91315 8.64547 1.90572
rclavicle -3.62782e-015 1.03368e-014
rhumerus -6.99749 -20.9179 14.3862
rradius 113.976
rwrist -52.8905
rhand -4.45499 -45.2012
rfingers 7.12502
rthumb 21.317 -74.0488
lclavicle -3.62782e-015 1.03368e-014
lhumerus 27.885 24.1687 -16.5757
lradius 29.058
lwrist 23.8877
lhand -23.7945 -24.202
lfingers 7.12502
lthumb 2.6758 5.76096
rfemur -3.00157 4.37374 4.18449
rtibia 14.4069
rfoot 2.70186 -29.5234
rtoes 1.2878
lfemur -30.3715 -1.81822 -22.0713
ltibia 29.5598
lfoot -16.9872 5.75222
ltoes 11.1434
145
root 3.90209 17.4329 3.35736 19.8858 -6.69659 -4.04131
lowerback -8.83078 1.11197 6.65577
upperback -10.5274 1.20425 1.1325
thorax -6.05073 0.175993 -2.48151
lowerneck -5.511 12.7706 9.07914
upperneck 21.8051 15.2238 6.14291
head 7.92561 8.51973 1.90185
rclavicle -4.42296e-015 5.1684e-015
rhumerus -6.94584 -20.6268 14.2379
rradius 113.922
rwrist -52.939
rhand -4.9418 -45.3296
rfingers 7.12502
rthumb 20.8493 -74.2293
lclavicle -4.42296e-015 5.1684e-015
lhumerus 27.9893 24.2467 -16.1817
lradius 28.9752
lwrist 23.4284
lhand -23.823 -24.1121
lfingers 7.12502
lthumb 2.64834 5.85121
rfemur -3.14986 4.33551 4.13524
rtibia 14.6693
rfoot 2.59922 -29.3946
rtoes 0.936209
lfemur -30.4638 -1.79202 -22.1502
ltibia 29.6571
lfoot -16.9901 5.84425
ltoes 10.2032
146
root 3.90073 17.4304 3.34538 19.9003 -6.70525 -4.00432
lowerback -9.33404 1.13751 6.57329
upperback -10.1873 1.18419 1.14629
thorax -5.39881 0.199429 -2.41488
lowerneck -5.43832 12.6567 8.74503
upperneck 21.5701 15.1267 6.12051
head 7.80208 8.44032 1.90872
rclavicle -8.89561e-015 -6.75868e-015
rhumerus -6.92669 -20.8314 14.0533
rradius 113.81
rwrist -52.7691
rhand -5.2948 -45.2351
rfingers 7.12502
rthumb 20.5101 -74.1717
lclavicle -8.89561e-015 -6.75868e-015
lhumerus 27.8567 24.7634 -15.937
lradius 28.9255
lwrist 23.2756
lhand -24.3405 -24.5933
lfingers 7.12502
lthumb 2.14852 5.37566
rfemur -3.37604 4.30636 4.10537
rtibia 14.9772
rfoot 3.60451 -29.1896
rtoes -1.30726
lfemur -30.5585 -1.78257 -22.1971
ltibia 29.7264
lfoot -16.9466 5.89711
ltoes 10.204
147
root 3.9018 17.4276 3.33849 19.8625 -6.72172 -4.00866
lowerback -8.52901 1.12693 6.54115
upperback -10.6611 1.26252 1.15909
thorax -6.36172 0.202159 -2.3921
lowerneck -5.33984 12.5587 8.38731
upperneck 22.2231 14.9477 6.56733
head 7.93432 8.38699 2.10472
rclavicle 2.32578e-014 4.17448e-015
rhumerus -6.74651 -19.9511 13.8809
rradius 113.799
rwrist -52.6074
rhand -5.1985 -44.9214
rfingers 7.12502
rthumb 20.6027 -73.8481
lclavicle 2.32578e-014 4.17448e-015
lhumerus 27.692 23.6062 -16.1259
lradius 29.1499
lwrist 24.0017
lhand -24.7381 -24.7192
lfingers 7.12502
lthumb 1.76448 5.25326
rfemur -3.55328 4.22555 4.09732
rtibia 15.3596
rfoot 3.7731 -29.0497
rtoes -0.96963
lfemur -30.5515 -1.75038 -22.2153
ltibia 29.7678
lfoot -16.9282 5.84833
ltoes 10.6685
148
root 3.90108 17.4257 3.33131 19.7982 -6.75678 -4.00432
lowerback -9.14025 1.11629 6.45379
upperback -10.1304 1.17803 1.20533
thorax -5.44503 0.206313 -2.28929
lowerneck -5.51925 12.5578 8.2098
upperneck 22.0357 15.012 6.27859
head 7.9086 8.37168 2.04661
rclavicle 5.14355e-015 -1.51076e-014
rhumerus -6.63951 -20.4809 13.5906
rradius 113.726
rwrist -52.4783
rhand -4.98096 -44.8082
rfingers 7.12502
rthumb 20.8117 -73.7121
lclavicle 5.14355e-015 -1.51076e-014
lhumerus 27.3714 24.117 -16.0678
lradius 29.1419
lwrist 24.2283
lhand -24.6926 -24.0621
lfingers 7.12502
lthumb 1.80841 5.91003
rfemur -3.6873 4.20842 4.09012
rtibia 15.727
rfoot 2.54204 -29.0742
rtoes 1.76136
lfemur -30.5453 -1.72975 -22.2214
ltibia 29.8166
lfoot -16.9074 5.79577
ltoes 11.0324
